<mxfile host="app.diagrams.net" modified="2024-06-07T10:55:42.139Z" agent="Mozilla/5.0 (X11; Linux x86_64) AppleWebKit/537.36 (KHTML, like Gecko) Chrome/125.0.0.0 Safari/537.36" etag="X-yBfoCWIV0xtXW_IRgJ" version="24.5.1" type="google">
  <diagram name="Page-1" id="vo8XARxIupYCMVd5qzAs">
    <mxGraphModel grid="1" page="1" gridSize="10" guides="1" tooltips="1" connect="1" arrows="1" fold="1" pageScale="1" pageWidth="850" pageHeight="1100" math="0" shadow="0">
      <root>
        <mxCell id="0" />
        <mxCell id="1" parent="0" />
        <mxCell id="s0jEPeoxzqzr82gE0n71-1" value="" style="ellipse;whiteSpace=wrap;html=1;aspect=fixed;" vertex="1" parent="1">
          <mxGeometry x="320" y="175" width="100" height="100" as="geometry" />
        </mxCell>
        <mxCell id="s0jEPeoxzqzr82gE0n71-2" value="&lt;font style=&quot;font-size: 14px;&quot;&gt;&lt;b&gt;IN-Patient Treatment&lt;/b&gt;&lt;/font&gt;" style="text;strokeColor=none;align=center;fillColor=none;html=1;verticalAlign=middle;whiteSpace=wrap;rounded=0;" vertex="1" parent="1">
          <mxGeometry x="340" y="210" width="60" height="30" as="geometry" />
        </mxCell>
        <mxCell id="s0jEPeoxzqzr82gE0n71-3" value="" style="rounded=0;whiteSpace=wrap;html=1;" vertex="1" parent="1">
          <mxGeometry x="30" y="185" width="120" height="60" as="geometry" />
        </mxCell>
        <mxCell id="s0jEPeoxzqzr82gE0n71-4" value="&lt;font style=&quot;font-size: 14px;&quot;&gt;&lt;b&gt;Staff / Doctor&lt;/b&gt;&lt;/font&gt;" style="text;strokeColor=none;align=center;fillColor=none;html=1;verticalAlign=middle;whiteSpace=wrap;rounded=0;" vertex="1" parent="1">
          <mxGeometry x="60" y="200" width="60" height="30" as="geometry" />
        </mxCell>
        <mxCell id="s0jEPeoxzqzr82gE0n71-5" value="" style="endArrow=classic;html=1;rounded=0;entryX=0.05;entryY=0.27;entryDx=0;entryDy=0;entryPerimeter=0;" edge="1" parent="1" target="s0jEPeoxzqzr82gE0n71-1">
          <mxGeometry width="50" height="50" relative="1" as="geometry">
            <mxPoint x="150" y="200" as="sourcePoint" />
            <mxPoint x="200" y="150" as="targetPoint" />
          </mxGeometry>
        </mxCell>
        <mxCell id="s0jEPeoxzqzr82gE0n71-6" value="Charges for In-Patient" style="text;strokeColor=none;align=center;fillColor=none;html=1;verticalAlign=middle;whiteSpace=wrap;rounded=0;" vertex="1" parent="1">
          <mxGeometry x="170" y="170" width="130" height="30" as="geometry" />
        </mxCell>
        <mxCell id="s0jEPeoxzqzr82gE0n71-7" value="" style="endArrow=classic;html=1;rounded=0;entryX=0.05;entryY=0.27;entryDx=0;entryDy=0;entryPerimeter=0;" edge="1" parent="1">
          <mxGeometry width="50" height="50" relative="1" as="geometry">
            <mxPoint x="150" y="230" as="sourcePoint" />
            <mxPoint x="325" y="232" as="targetPoint" />
          </mxGeometry>
        </mxCell>
        <mxCell id="s0jEPeoxzqzr82gE0n71-8" value="Lab Charges" style="text;strokeColor=none;align=center;fillColor=none;html=1;verticalAlign=middle;whiteSpace=wrap;rounded=0;" vertex="1" parent="1">
          <mxGeometry x="180" y="230" width="100" height="30" as="geometry" />
        </mxCell>
        <mxCell id="s0jEPeoxzqzr82gE0n71-9" value="" style="ellipse;whiteSpace=wrap;html=1;aspect=fixed;" vertex="1" parent="1">
          <mxGeometry x="320" y="325" width="100" height="100" as="geometry" />
        </mxCell>
        <mxCell id="s0jEPeoxzqzr82gE0n71-10" value="&lt;b&gt;&lt;font style=&quot;font-size: 14px;&quot;&gt;OUT-Patient Treatment&lt;/font&gt;&lt;/b&gt;" style="text;strokeColor=none;align=center;fillColor=none;html=1;verticalAlign=middle;whiteSpace=wrap;rounded=0;" vertex="1" parent="1">
          <mxGeometry x="340" y="360" width="60" height="30" as="geometry" />
        </mxCell>
        <mxCell id="s0jEPeoxzqzr82gE0n71-11" value="" style="endArrow=classic;html=1;rounded=0;" edge="1" parent="1">
          <mxGeometry width="50" height="50" relative="1" as="geometry">
            <mxPoint x="120" y="245" as="sourcePoint" />
            <mxPoint x="320" y="355" as="targetPoint" />
            <Array as="points">
              <mxPoint x="120" y="355" />
            </Array>
          </mxGeometry>
        </mxCell>
        <mxCell id="s0jEPeoxzqzr82gE0n71-12" value="Lab Charges" style="text;strokeColor=none;align=center;fillColor=none;html=1;verticalAlign=middle;whiteSpace=wrap;rounded=0;" vertex="1" parent="1">
          <mxGeometry x="180" y="325" width="90" height="30" as="geometry" />
        </mxCell>
        <mxCell id="s0jEPeoxzqzr82gE0n71-13" value="" style="endArrow=classic;html=1;rounded=0;entryX=-0.02;entryY=0.6;entryDx=0;entryDy=0;entryPerimeter=0;" edge="1" parent="1" target="s0jEPeoxzqzr82gE0n71-9">
          <mxGeometry width="50" height="50" relative="1" as="geometry">
            <mxPoint x="70" y="245" as="sourcePoint" />
            <mxPoint x="270" y="355" as="targetPoint" />
            <Array as="points">
              <mxPoint x="70" y="385" />
            </Array>
          </mxGeometry>
        </mxCell>
        <mxCell id="s0jEPeoxzqzr82gE0n71-14" value="Charges for Out-Patient" style="text;strokeColor=none;align=center;fillColor=none;html=1;verticalAlign=middle;whiteSpace=wrap;rounded=0;" vertex="1" parent="1">
          <mxGeometry x="130" y="385" width="130" height="30" as="geometry" />
        </mxCell>
        <mxCell id="s0jEPeoxzqzr82gE0n71-15" value="" style="ellipse;whiteSpace=wrap;html=1;aspect=fixed;" vertex="1" parent="1">
          <mxGeometry x="510" y="255" width="100" height="100" as="geometry" />
        </mxCell>
        <mxCell id="s0jEPeoxzqzr82gE0n71-16" value="" style="endArrow=classic;html=1;rounded=0;entryX=-0.003;entryY=0.646;entryDx=0;entryDy=0;entryPerimeter=0;" edge="1" parent="1" source="s0jEPeoxzqzr82gE0n71-9" target="s0jEPeoxzqzr82gE0n71-15">
          <mxGeometry width="50" height="50" relative="1" as="geometry">
            <mxPoint x="410" y="350" as="sourcePoint" />
            <mxPoint x="460" y="300" as="targetPoint" />
          </mxGeometry>
        </mxCell>
        <mxCell id="s0jEPeoxzqzr82gE0n71-17" value="" style="endArrow=classic;html=1;rounded=0;entryX=0.02;entryY=0.36;entryDx=0;entryDy=0;entryPerimeter=0;" edge="1" parent="1" target="s0jEPeoxzqzr82gE0n71-15">
          <mxGeometry width="50" height="50" relative="1" as="geometry">
            <mxPoint x="410" y="255" as="sourcePoint" />
            <mxPoint x="460" y="205" as="targetPoint" />
          </mxGeometry>
        </mxCell>
        <mxCell id="s0jEPeoxzqzr82gE0n71-18" value="Health Card Amount" style="text;strokeColor=none;align=center;fillColor=none;html=1;verticalAlign=middle;whiteSpace=wrap;rounded=0;" vertex="1" parent="1">
          <mxGeometry x="410" y="290" width="60" height="30" as="geometry" />
        </mxCell>
        <mxCell id="s0jEPeoxzqzr82gE0n71-19" value="&lt;b&gt;&lt;font style=&quot;font-size: 14px;&quot;&gt;Calculate Billing&lt;/font&gt;&lt;/b&gt;" style="text;strokeColor=none;align=center;fillColor=none;html=1;verticalAlign=middle;whiteSpace=wrap;rounded=0;" vertex="1" parent="1">
          <mxGeometry x="530" y="290" width="60" height="30" as="geometry" />
        </mxCell>
        <mxCell id="s0jEPeoxzqzr82gE0n71-20" value="" style="shape=process;whiteSpace=wrap;html=1;backgroundOutline=1;" vertex="1" parent="1">
          <mxGeometry x="500" y="130" width="120" height="60" as="geometry" />
        </mxCell>
        <mxCell id="s0jEPeoxzqzr82gE0n71-21" value="&lt;b&gt;&lt;font style=&quot;font-size: 14px;&quot;&gt;Billing Database&lt;/font&gt;&lt;/b&gt;" style="text;strokeColor=none;align=center;fillColor=none;html=1;verticalAlign=middle;whiteSpace=wrap;rounded=0;" vertex="1" parent="1">
          <mxGeometry x="530" y="145" width="60" height="30" as="geometry" />
        </mxCell>
        <mxCell id="s0jEPeoxzqzr82gE0n71-22" value="" style="endArrow=classic;html=1;rounded=0;entryX=0.33;entryY=0.984;entryDx=0;entryDy=0;entryPerimeter=0;" edge="1" parent="1" target="s0jEPeoxzqzr82gE0n71-20">
          <mxGeometry width="50" height="50" relative="1" as="geometry">
            <mxPoint x="540" y="260" as="sourcePoint" />
            <mxPoint x="590" y="210" as="targetPoint" />
          </mxGeometry>
        </mxCell>
        <mxCell id="s0jEPeoxzqzr82gE0n71-23" value="" style="endArrow=classic;html=1;rounded=0;entryX=0.7;entryY=0.055;entryDx=0;entryDy=0;entryPerimeter=0;" edge="1" parent="1" target="s0jEPeoxzqzr82gE0n71-15">
          <mxGeometry width="50" height="50" relative="1" as="geometry">
            <mxPoint x="580" y="190" as="sourcePoint" />
            <mxPoint x="580" y="119" as="targetPoint" />
          </mxGeometry>
        </mxCell>
        <mxCell id="s0jEPeoxzqzr82gE0n71-24" value="Store" style="text;strokeColor=none;align=center;fillColor=none;html=1;verticalAlign=middle;whiteSpace=wrap;rounded=0;" vertex="1" parent="1">
          <mxGeometry x="480" y="210" width="60" height="30" as="geometry" />
        </mxCell>
        <mxCell id="s0jEPeoxzqzr82gE0n71-25" value="Retrieve" style="text;strokeColor=none;align=center;fillColor=none;html=1;verticalAlign=middle;whiteSpace=wrap;rounded=0;" vertex="1" parent="1">
          <mxGeometry x="580" y="210" width="60" height="30" as="geometry" />
        </mxCell>
        <mxCell id="s0jEPeoxzqzr82gE0n71-26" value="" style="ellipse;whiteSpace=wrap;html=1;aspect=fixed;" vertex="1" parent="1">
          <mxGeometry x="510" y="425" width="100" height="100" as="geometry" />
        </mxCell>
        <mxCell id="s0jEPeoxzqzr82gE0n71-27" value="&lt;font style=&quot;font-size: 14px;&quot;&gt;&lt;b&gt;Generating Report&lt;/b&gt;&lt;/font&gt;" style="text;strokeColor=none;align=center;fillColor=none;html=1;verticalAlign=middle;whiteSpace=wrap;rounded=0;" vertex="1" parent="1">
          <mxGeometry x="530" y="460" width="60" height="30" as="geometry" />
        </mxCell>
        <mxCell id="s0jEPeoxzqzr82gE0n71-28" value="" style="endArrow=classic;html=1;rounded=0;entryX=0.5;entryY=0;entryDx=0;entryDy=0;" edge="1" parent="1" target="s0jEPeoxzqzr82gE0n71-26">
          <mxGeometry width="50" height="50" relative="1" as="geometry">
            <mxPoint x="560" y="355" as="sourcePoint" />
            <mxPoint x="610" y="305" as="targetPoint" />
          </mxGeometry>
        </mxCell>
        <mxCell id="s0jEPeoxzqzr82gE0n71-29" value="Preparing the Receipt" style="text;strokeColor=none;align=center;fillColor=none;html=1;verticalAlign=middle;whiteSpace=wrap;rounded=0;" vertex="1" parent="1">
          <mxGeometry x="560" y="370" width="70" height="30" as="geometry" />
        </mxCell>
        <mxCell id="s0jEPeoxzqzr82gE0n71-30" value="" style="rounded=0;whiteSpace=wrap;html=1;" vertex="1" parent="1">
          <mxGeometry x="700" y="445" width="120" height="60" as="geometry" />
        </mxCell>
        <mxCell id="s0jEPeoxzqzr82gE0n71-31" value="&lt;font style=&quot;font-size: 14px;&quot;&gt;&lt;b&gt;Cashier&lt;/b&gt;&lt;/font&gt;" style="text;strokeColor=none;align=center;fillColor=none;html=1;verticalAlign=middle;whiteSpace=wrap;rounded=0;" vertex="1" parent="1">
          <mxGeometry x="730" y="460" width="60" height="30" as="geometry" />
        </mxCell>
        <mxCell id="s0jEPeoxzqzr82gE0n71-32" value="" style="endArrow=classic;html=1;rounded=0;entryX=0;entryY=0.5;entryDx=0;entryDy=0;" edge="1" parent="1" target="s0jEPeoxzqzr82gE0n71-30">
          <mxGeometry width="50" height="50" relative="1" as="geometry">
            <mxPoint x="610" y="475" as="sourcePoint" />
            <mxPoint x="660" y="425" as="targetPoint" />
          </mxGeometry>
        </mxCell>
        <mxCell id="s0jEPeoxzqzr82gE0n71-33" value="Show Receipt" style="text;strokeColor=none;align=center;fillColor=none;html=1;verticalAlign=middle;whiteSpace=wrap;rounded=0;" vertex="1" parent="1">
          <mxGeometry x="620" y="480" width="60" height="30" as="geometry" />
        </mxCell>
        <mxCell id="s0jEPeoxzqzr82gE0n71-34" value="fig. Hospital Management System - Level 2" style="text;strokeColor=none;align=center;fillColor=none;html=1;verticalAlign=middle;whiteSpace=wrap;rounded=0;" vertex="1" parent="1">
          <mxGeometry x="305" y="560" width="270" height="30" as="geometry" />
        </mxCell>
      </root>
    </mxGraphModel>
  </diagram>
</mxfile>
